
<global>
amp_veltrack=0
</global>

<group>
ampeg_attack=0.01
ampeg_release=0.35
group_label=PP
xf_cccurve=gain
xfin_hicc1=63
xfout_hicc1=127
xfout_locc1=64

<region>
hikey=A#3
hivel=127
lokey=A3
loop_end=193544
loop_mode=loop_continuous
loop_start=77358
loop_xfade=24017
lovel=1
pitch_keycenter=A3
sample=Altos_Ahh_sustain_PP_A3.opus
tune=+2
</region>

<region>
hikey=A#4
hivel=127
lokey=A4
loop_end=191613
loop_mode=loop_continuous
loop_start=76586
loop_xfade=23778
lovel=1
offset=5705
pitch_keycenter=A4
sample=Altos_Ahh_sustain_PP_A4.opus
tune=-4
</region>

<region>
hikey=C4
hivel=127
lokey=B3
loop_end=193544
loop_mode=loop_continuous
loop_start=77358
loop_xfade=24017
lovel=1
offset=5065
pitch_keycenter=B3
sample=Altos_Ahh_sustain_PP_B3.opus
tune=-5
</region>

<region>
hikey=C5
hivel=127
lokey=B4
loop_end=191613
loop_mode=loop_continuous
loop_start=76586
loop_xfade=23778
lovel=1
offset=6759
pitch_keycenter=B4
sample=Altos_Ahh_sustain_PP_B4.opus
tune=+6
</region>

<region>
hikey=D4
hivel=127
lokey=C#4
loop_end=191613
loop_mode=loop_continuous
loop_start=76586
loop_xfade=23778
lovel=1
offset=5325
pitch_keycenter=C#4
sample=Altos_Ahh_sustain_PP_C#4.opus
tune=-17
</region>

<region>
hikey=D5
hivel=127
lokey=C#5
loop_end=191613
loop_mode=loop_continuous
loop_start=76586
loop_xfade=23778
lovel=1
offset=13349
pitch_keycenter=C#5
sample=Altos_Ahh_sustain_PP_C#5.opus
tune=-3
</region>

<region>
hikey=E4
hivel=127
lokey=D#4
loop_end=191613
loop_mode=loop_continuous
loop_start=76586
loop_xfade=23778
lovel=1
offset=5611
pitch_keycenter=D#4
sample=Altos_Ahh_sustain_PP_D#4.opus
</region>

<region>
hikey=E5
hivel=127
lokey=D#5
loop_end=191613
loop_mode=loop_continuous
loop_start=76586
loop_xfade=23778
lovel=1
offset=9325
pitch_keycenter=D#5
sample=Altos_Ahh_sustain_PP_D#5.opus
tune=-4
</region>

<region>
hikey=F#4
hivel=127
lokey=F4
loop_end=191613
loop_mode=loop_continuous
loop_start=76586
loop_xfade=23778
lovel=1
offset=404
pitch_keycenter=F4
sample=Altos_Ahh_sustain_PP_F4.opus
tune=+2
</region>

<region>
hikey=A5
hivel=127
lokey=F5
loop_end=191613
loop_mode=loop_continuous
loop_start=76586
loop_xfade=23778
lovel=1
offset=10450
pitch_keycenter=F5
sample=Altos_Ahh_sustain_PP_F5.opus
tune=+3
</region>

<region>
hikey=G#3
hivel=127
lokey=D3
loop_end=193544
loop_mode=loop_continuous
loop_start=77358
loop_xfade=24017
lovel=1
offset=3858
pitch_keycenter=G3
sample=Altos_Ahh_sustain_PP_G3.opus
tune=-13
</region>

<region>
hikey=G#4
hivel=127
lokey=G4
loop_end=191613
loop_mode=loop_continuous
loop_start=76586
loop_xfade=23778
lovel=1
offset=5227
pitch_keycenter=G4
sample=Altos_Ahh_sustain_PP_G4.opus
tune=-5
</region>
</group>

<group>
ampeg_attack=0.01
ampeg_release=0.35
group_label=FF
xf_cccurve=gain
xfin_hicc1=127
xfin_locc1=64
xfout_hicc1=127
xfout_locc1=127

<region>
hikey=A#4
hivel=127
lokey=A4
loop_end=187707
loop_mode=loop_continuous
loop_start=75025
loop_xfade=23293
lovel=1
offset=196
pitch_keycenter=A4
sample=Altos_Ahh_sustain_FF_A4.opus
</region>

<region>
hikey=C5
hivel=127
lokey=B4
loop_end=188918
loop_mode=loop_continuous
loop_start=75509
loop_xfade=23443
lovel=1
offset=1987
pitch_keycenter=B4
sample=Altos_Ahh_sustain_FF_B4.opus
tune=-9
</region>

<region>
hikey=D4
hivel=127
lokey=C#4
loop_end=191103
loop_mode=loop_continuous
loop_start=76383
loop_xfade=23714
lovel=1
offset=5790
pitch_keycenter=C#4
sample=Altos_Ahh_sustain_FF_C#4.opus
tune=-10
</region>

<region>
hikey=D5
hivel=127
lokey=C#5
loop_end=187140
loop_mode=loop_continuous
loop_start=74799
loop_xfade=23223
lovel=1
offset=1956
pitch_keycenter=C#5
sample=Altos_Ahh_sustain_FF_C#5.opus
tune=-21
</region>

<region>
hikey=E4
hivel=127
lokey=D#4
loop_end=187703
loop_mode=loop_continuous
loop_start=75024
loop_xfade=23292
lovel=1
offset=144
pitch_keycenter=D#4
sample=Altos_Ahh_sustain_FF_D#4.opus
tune=-9
</region>

<region>
hikey=E5
hivel=127
lokey=D#5
loop_end=188119
loop_mode=loop_continuous
loop_start=75190
loop_xfade=23344
lovel=1
offset=2020
pitch_keycenter=D#5
sample=Altos_Ahh_sustain_FF_D#5.opus
tune=-19
</region>

<region>
hikey=F#4
hivel=127
lokey=F4
loop_end=191613
loop_mode=loop_continuous
loop_start=76586
loop_xfade=23778
lovel=1
offset=6845
pitch_keycenter=F4
sample=Altos_Ahh_sustain_FF_F4.opus
tune=-12
</region>

<region>
hikey=A5
hivel=127
lokey=F5
loop_end=188405
loop_mode=loop_continuous
loop_start=75304
loop_xfade=23380
lovel=1
offset=463
pitch_keycenter=F5
sample=Altos_Ahh_sustain_FF_F5.opus
tune=-14
</region>

<region>
hikey=G#4
hivel=127
lokey=G4
loop_end=187513
loop_mode=loop_continuous
loop_start=74948
loop_xfade=23269
lovel=1
offset=726
pitch_keycenter=G4
sample=Altos_Ahh_sustain_FF_G4.opus
tune=+2
</region>

<region>
hikey=A#3
hivel=127
lokey=A3
loop_end=193544
loop_mode=loop_continuous
loop_start=77358
loop_xfade=24017
lovel=1
offset=1740
pitch_keycenter=A3
sample=Altos_Ahh_sustain_FF_A3.opus
tune=-14
</region>

<region>
hikey=C4
hivel=127
lokey=B3
loop_end=193544
loop_mode=loop_continuous
loop_start=77358
loop_xfade=24017
lovel=1
offset=4230
pitch_keycenter=B3
sample=Altos_Ahh_sustain_FF_B3.opus
tune=-13
</region>

<region>
hikey=G#3
hivel=127
lokey=D3
loop_end=193544
loop_mode=loop_continuous
loop_start=77358
loop_xfade=24017
lovel=1
offset=2083
pitch_keycenter=G3
sample=Altos_Ahh_sustain_FF_G3.opus
</region>
</group>